<svg width="226" height="194" viewBox="0 0 226 194" fill="none" xmlns="http://www.w3.org/2000/svg">
<path d="M124.485 145.189C126.157 148.8 130.43 150.369 134.031 148.693C137.631 147.016 139.195 142.729 137.524 139.118L76.1727 6.5393C74.5014 2.92766 70.2277 1.35888 66.6272 3.03535C63.0267 4.71182 61.4627 8.9987 63.1341 12.6103L124.485 145.189Z" fill="white"/>
<path d="M124.68 140.179C123.5 143.981 125.617 148.022 129.407 149.206C133.197 150.389 137.226 148.267 138.405 144.465L163.92 62.244C165.1 58.4421 162.984 54.4008 159.193 53.2173C155.403 52.0339 151.374 54.1566 150.195 57.9584L124.68 140.179Z" fill="white"/>
<path d="M175.717 106.534C177.702 109.983 182.097 111.164 185.535 109.173C188.973 107.182 190.151 102.773 188.166 99.3246L163.826 57.0371C161.841 53.5887 157.446 52.4073 154.008 54.3982C150.57 56.389 149.392 60.7984 151.377 64.2467L175.717 106.534Z" fill="white"/>
<path d="M200.215 85.1213C202.199 81.673 201.022 77.2637 197.584 75.2728C194.146 73.2819 189.75 74.4634 187.766 77.9117L176.775 97.0075C174.79 100.456 175.968 104.865 179.405 106.856C182.843 108.847 187.239 107.666 189.224 104.217L200.215 85.1213Z" fill="white"/>
<path d="M218.813 88.7201C222.782 88.7201 226 85.4922 226 81.5104C226 77.5286 222.782 74.3008 218.813 74.3008H196.831C192.861 74.3008 189.643 77.5286 189.643 81.5104C189.643 85.4922 192.861 88.7201 196.831 88.7201H218.813Z" fill="white"/>
<path d="M27.6415 193.532H23.1441V177.8H6.03962V193.532H1.56543V159.498H6.03962V174.131H23.1441V159.498H27.6415V193.532Z" fill="white"/>
<path d="M42.905 182.803L43.5575 187.291L44.5129 183.247L51.2242 159.498H54.9993L61.5475 183.247L62.4796 187.361L63.202 182.779L68.4685 159.498H72.966L64.74 193.532H60.662L53.671 168.731L53.1351 166.136L52.5991 168.731L45.3519 193.532H41.2738L33.0712 159.498H37.5453L42.905 182.803Z" fill="white"/>
<path d="M83.732 159.498L94.8242 187.267L105.916 159.498H111.719V193.532H107.245V180.278L107.664 165.973L96.5254 193.532H93.0998L81.9843 166.043L82.427 180.278V193.532H77.9528V159.498H83.732Z" fill="white"/>
<path d="M145.718 177.613C145.718 180.948 145.159 183.862 144.04 186.356C142.922 188.833 141.337 190.727 139.286 192.036C137.236 193.345 134.843 193.999 132.109 193.999C129.437 193.999 127.068 193.345 125.002 192.036C122.935 190.711 121.328 188.833 120.178 186.402C119.044 183.956 118.461 181.127 118.43 177.917V175.463C118.43 172.19 118.997 169.3 120.131 166.791C121.265 164.282 122.866 162.365 124.932 161.041C127.014 159.7 129.39 159.03 132.062 159.03C134.781 159.03 137.174 159.693 139.24 161.017C141.322 162.326 142.922 164.235 144.04 166.744C145.159 169.237 145.718 172.144 145.718 175.463V177.613ZM141.267 175.416C141.267 171.38 140.459 168.287 138.844 166.136C137.228 163.97 134.968 162.887 132.062 162.887C129.235 162.887 127.006 163.97 125.375 166.136C123.759 168.287 122.928 171.279 122.881 175.112V177.613C122.881 181.525 123.697 184.603 125.328 186.847C126.975 189.075 129.235 190.189 132.109 190.189C134.999 190.189 137.236 189.137 138.82 187.034C140.405 184.914 141.221 181.883 141.267 177.941V175.416Z" fill="white"/>
<path d="M178.505 193.532H174.008L156.927 167.305V193.532H152.429V159.498H156.927L174.055 185.841V159.498H178.505V193.532Z" fill="white"/>
<path d="M191.252 193.532H186.778V159.498H191.252V193.532Z" fill="white"/>
<path d="M222.199 163.191H211.293V193.532H206.842V163.191H195.959V159.498H222.199V163.191Z" fill="white"/>
<path d="M62.2823 142.241C62.2823 146.222 65.5003 149.45 69.4698 149.45C73.4393 149.45 76.6572 146.222 76.6572 142.241L76.6572 10.4252C76.6572 6.44342 73.4393 3.21556 69.4698 3.21556C65.5003 3.21556 62.2823 6.44342 62.2823 10.4252L62.2823 142.241Z" fill="white"/>
<path d="M0.000105858 142.304C0.000105858 146.286 3.21804 149.514 7.18755 149.514C11.1571 149.514 14.375 146.286 14.375 142.304L14.375 10.4887C14.375 6.5069 11.1571 3.27904 7.18755 3.27904C3.21804 3.27904 0.000105858 6.5069 0.000105858 10.4887L0.000105858 142.304Z" fill="white"/>
<path d="M65.6959 88.8949C69.6654 88.8949 72.8833 85.667 72.8833 81.6852C72.8833 77.7035 69.6654 74.4756 65.6959 74.4756H10.4963C6.52674 74.4756 3.30882 77.7035 3.30882 81.6852C3.30882 85.667 6.52674 88.8949 10.4963 88.8949H65.6959Z" fill="white"/>
</svg>
